<svg xmlns="http://www.w3.org/2000/svg" width="200" height="44" viewBox="0 0 200 44" fill="none">
  <rect width="200" height="44" rx="6" fill="#0f172a"/>
  <rect x="0.5" y="0.5" width="199" height="43" rx="5.5" stroke="#334155" stroke-opacity="0.6"/>
  <!-- Rocket icon -->
  <g transform="translate(16, 10)">
    <path d="M12.5 2C12.5 2 9.5 5 8 8.5C7.2 8.2 6.3 8 5.5 8C3.5 8 2 9.5 2 9.5L5.5 13L2 16.5H5.5L7.5 14.5L11 18C11 18 12.5 16.5 12.5 14.5C12.5 13.7 12.3 12.8 12 12C15.5 10.5 18.5 7.5 18.5 7.5L12.5 2Z" fill="#60a5fa" stroke="#93c5fd" stroke-width="0.5"/>
    <circle cx="13" cy="7" r="1.5" fill="#0f172a"/>
    <path d="M5 19L2 22" stroke="#60a5fa" stroke-width="1" stroke-linecap="round" opacity="0.6"/>
    <path d="M3 17L1 22" stroke="#60a5fa" stroke-width="1" stroke-linecap="round" opacity="0.4"/>
  </g>
  <!-- Text -->
  <text x="44" y="26.5" font-family="-apple-system, BlinkMacSystemFont, 'Segoe UI', Helvetica, Arial, sans-serif" font-size="15" font-weight="600" fill="#f1f5f9">
    Deploy on Fleet
  </text>
</svg>
